<mxfile host="app.diagrams.net" modified="2023-12-29T01:02:47.799Z" agent="Mozilla/5.0 (Macintosh; Intel Mac OS X 10_15_7) AppleWebKit/537.36 (KHTML, like Gecko) Chrome/102.0.0.0 Safari/537.36" version="22.1.15" etag="UuWW8e__8-k5qv6_d1M5" type="github">
  <diagram name="第 1 页" id="B5-OK-UezbjHgSZCqZKz">
    <mxGraphModel>
      <root>
        <mxCell id="0" />
        <mxCell id="1" parent="0" />
      </root>
    </mxGraphModel>
  </diagram>
</mxfile>
